<svg width="24" height="25" viewBox="0 0 24 25" fill="none" xmlns="http://www.w3.org/2000/svg">
<g clip-path="url(#clip0_1_37567)">
<g filter="url(#filter0_d_1_37567)">
<path d="M21 2.758H3C1.9 2.758 1 3.658 1 4.758V12.758H3V4.758H21V20.758C22.1 20.758 23 19.858 23 18.758V4.758C23 3.658 22.1 2.758 21 2.758Z" fill="white"/>
<path d="M13 9.758C13 7.548 11.21 5.758 9 5.758C6.79 5.758 5 7.548 5 9.758C5 11.968 6.79 13.758 9 13.758C11.21 13.758 13 11.968 13 9.758ZM7 9.758C7 8.658 7.9 7.758 9 7.758C10.1 7.758 11 8.658 11 9.758C11 10.858 10.1 11.758 9 11.758C7.9 11.758 7 10.858 7 9.758Z" fill="white"/>
<path d="M15.39 16.318C13.71 15.458 11.53 14.758 9 14.758C6.47 14.758 4.29 15.458 2.61 16.318C1.61 16.828 1 17.858 1 18.978V21.758H17V18.978C17 17.858 16.39 16.828 15.39 16.318ZM15 19.758H3C3 19.038 2.9 18.418 3.52 18.098C4.71 17.488 6.63 16.758 9 16.758C11.37 16.758 13.29 17.488 14.48 18.098C15.11 18.418 15 19.048 15 19.758Z" fill="white"/>
</g>
</g>
<defs>
<filter id="filter0_d_1_37567" x="1" y="2.758" width="24" height="21" filterUnits="userSpaceOnUse" color-interpolation-filters="sRGB">
<feFlood flood-opacity="0" result="BackgroundImageFix"/>
<feColorMatrix in="SourceAlpha" type="matrix" values="0 0 0 0 0 0 0 0 0 0 0 0 0 0 0 0 0 0 127 0" result="hardAlpha"/>
<feOffset dx="1" dy="1"/>
<feGaussianBlur stdDeviation="0.5"/>
<feComposite in2="hardAlpha" operator="out"/>
<feColorMatrix type="matrix" values="0 0 0 0 0 0 0 0 0 0 0 0 0 0 0 0 0 0 1 0"/>
<feBlend mode="normal" in2="BackgroundImageFix" result="effect1_dropShadow_1_37567"/>
<feBlend mode="normal" in="SourceGraphic" in2="effect1_dropShadow_1_37567" result="shape"/>
</filter>
<clipPath id="clip0_1_37567">
<rect width="24" height="24" fill="white" transform="translate(0 0.257996)"/>
</clipPath>
</defs>
</svg>
